<?xml version="1.0" encoding="UTF-8"?>
<svg version="1.1" viewBox="0 0 1127 2048" width="1280" height="1280" xmlns="http://www.w3.org/2000/svg">
<path transform="translate(0)" d="m0 0h1127v2048h-1127z" fill="#F7DBDA"/>
<path transform="translate(0)" d="m0 0h1127v1191h-2v-3h-2l-1 5h-2v2h-2v2h-3l-2-6 1-3-1-4-6-3-2-4v-4l-7-1-2-2-4-2-1-3h-2l-1 3h-5l-1-2-1-1v-2h2v-2l-3 1-1 3-1-3-5-2-4 1v5l-4 2-3-1h-2l-1 4-1 2h-4v-2l-3-1-1-1-4 1-5 2-1 4-4 4h-6l-1-7-1-2-3 1-5 8-3 1-6-1-2-3-4-3v-5l-4-1-4-3v-5l-1-3-2 1-2 7-2 5-3 1-1 7-4 6h-3l-3 9-3 10-8 20-4 4h-2l12-40 5-19 4-21 2-19 1-25v-23l-2-43-4-32-6-29-7-26-10-28-10-23-8-17-12-21-12-19-8-11-10-13-12-14-22-24-8-7-7-7-11-9-16-13-23-16-20-12-24-13-29-13-36-12-32-8-22-4-14-2-27-2h-54l-27 3-24 4-25 6-25 7-28 10-23 10-20 10-24 14-19 13-13 10-10 8-10 9-8 7-13 12-7 8-11 12-11 14-8 10-14 20-15 25-12 23-9 20-9 24-11 36-7 30-4 27-1 13v59l3 31 4 25 7 30 8 27 8 21 11 24 12 22 10 17 9 13-1 2-8-11-11-17-7-12-13-26-4-9-1-5-2-1-3-9-3-8v-3h-2l-3-7-3-9-2-2-3-10-3-7-2-7h-4l-2 8h-4l-6-2-3-7-3-2-1-7h-6v2h-7l-1-5 1-2-2 1-1 4-2-1-1 3v2l-3-1-1-2 1-2-6 5-1 4h-4v-3l-3 1-5-2-1-2-6 1-1 2-5-1-2-3-6 6-3-2v-2l-3 1-2-1v3h-3v8l-3 1 1 4-1 2-5-1-2 2h-5l-4-5-3-1-1 3-7-2-4 1h-6l-2 4-3 4-4 1-1-8-2-2v-3h-2z" fill="#FAB7B5"/>
<path transform="translate(562,766)" d="m0 0h9l14 7 10 8h3v-2l5 1 4-3 1 2 4-1 2-1 2 4 7-1-1 5 7-1v6l5 1 1 5v7l6-3 9-1 13 4 6 5 4 6 2 5 12 3 6 4 7 8 6 12-1 10-9 10-5 2h-6l-2-1-10-1 3-3-5-1-10 3-2 2h9l-4 2-19 4h-10l-11-4-20-11-6-1-4-1v-2l-13 2-6 3-6 8-4 9 10 1 8 4 2-6 4-5 8-5 3-1h10l8 4 6 7 2 4 4-1 7-3 9 1 8 4 5 1 4-3 4-1h7l8 3 5 4 3 6v7l8-4h13l8 4 6 7 1 9 7 1 7 3 8-2 9 3 5 5 4 6v11l-6 8-7 4-12 2-8 11-10 5-12 2h-9l-19-3-16-9-13-8-8-5-10-4-9-1 2 4 8 5 9 4 1 1v15l1 3v8l-4 11-1 5 9 3 5 5 3 5v13l-4 6-6 5h-11l-10-6-4-4-7 21-5 18-5 13-1 6v12l3 9 1 1h71l14 1 4 4v13l-13 131-6 60-4 16-5 7-3 2h-214l-7-8-3-9-4-30-15-134-4-35v-13l5-4 21-1h78v-10l3-15 5-13 6-11 9-8 12-7 5-6-1-2-12-4h-38l-12 3-22 8-29 9-4 1h-14l-16-2-17-6-7 8-8 3-13-3-4-3h-9l-13-4-7-4-6-7-1-9 2-5-1-5-4-8v-10l4-8 7-5 6-2h16l4-1 1-2h8 4v2l5-1 7-6 3-1h11l6 1 4-6 3-3 5-2h10l4 2h5l2-2 7-2h3l4 1 3-1 1 4 6 2 15 1 8 4 4-1 7-2 9 1 1 2 5 2v2l5-1 2-4 6-1 7-1 4-5 8-5 9-1 8 4 5 2 2-2 9-1 7 2v2l4 2 5-1 2 1h6l-10-8-16-5-8-3-7-6-6-7v-2l-4-2h-8l-23 6v3l-18 5-21 3-14 1h-23l-10-4-8-7v-2h-2l-1-2-1 2-4-2-2-2v-3l-4-2-4-1-4 1-13-2-8-5-4-5v-10l3-7 7-6 11-6 11-9 4-2 9-1 12 2-4-5-5-4-5-10v-11l3-11 5-4 2-3 6-2 7-1 2-7 5-5 6-3v2h4l-2-5 1-8 6-8 8-4 10-1 2-4 9-8 13-5h7l9 2 5 3 9-3 11-5z" fill="#99B06B"/>
<path transform="translate(533,1010)" d="m0 0h2l3 4 9 2 5-1 5 2 6 5 7 2 4-1h4l3-3 7-3 5 1 3 3h6v2l6-2 5 1 9 1 2 1-2 9-9 31-5 13-1 6v12l3 9 1 1h71l14 1 4 4v13l-13 131-6 60-4 16-5 7-3 2h-214l-7-8-3-9-4-30-15-134-4-35v-13l5-4 21-1h78v-10l3-15 5-13 6-11 9-8 12-7 5-6-1-2-12-4h-38l-12 3-22 8-29 9-4 1h-14l-16-2-16-6v-3l11 3h4l-11-6 1-3 5 1 10 5 12 3-1-4 4-1 7 3 10 1 8-3 5-4 2-3 7 2h15l1-5 5-2 1-7h3l2 3 8 1 1 3 6-3h6l3-5 4-2z" fill="#474644"/>
<path transform="translate(454,1745)" d="m0 0h229l13 1 12 4 11 7 7 7 7 11 5 13 1 6v11l-3 12-8 15-10 11-11 7-10 4-14 2h-221l-19-1-12-4-14-9-7-7-7-11-5-13-1-5v-13l4-15 6-10 9-10 10-7 10-4z" fill="#87A392"/>
<path transform="translate(691,899)" d="m0 0 7 1 9 3 1 1h5l1-1 9-1 3 5v6l7 1 7 3 8-2 9 3 5 5 4 6v11l-6 8-7 4-12 2-8 11-10 5-12 2h-9l-19-3-16-9-13-8-8-5-10-4-9-1 2 4 8 5 9 4 1 1v15l1 3v8l-4 11-1 5 9 3 5 5 3 5v13l-4 6-6 5h-11l-10-6-4-4-6-2h-9l-3-1-5 1v-2l-6 1-1-3-7-1-7 3h-2l-1 3h-6l-4 1-8-4-4-4-7-1-5 1-7-3-2-4h-2l-2 7-4 2-3 5h-6l-3 2h-3l-1-2-8-1-4-4-1 7-6 2-1 5-6 1h-9l-7-2-4 5-7 4-7 1-9-2-6-2h-3l1 4-8-1-11-4-4-3h-4l-1 2 6 2 8 5-4 1-13-4-4 4-5 6-8 3-13-3-4-3h-9l-13-4-7-4-6-7-1-9 2-5-1-5-4-8v-10l4-8 7-5 6-2h16l4-1 1-2h8 4v2l5-1 7-6 3-1h11l6 1 4-6 3-3 5-2h10l4 2h5l2-2 7-2h3l4 1 3-1 1 4 6 2 15 1 8 4 4-1 7-2 9 1 1 2 5 2v2l5-1 2-4 6-1 7-1 4-5 8-5 9-1 8 4 5 2 2-2 9-1 7 2v2l4 2 5-1 2 1h6l-10-8-16-5-8-3-7-6-6-7v-2l-4-2h-8l-23 6v3l-18 5-21 3-14 1h-23l-10-4-8-7v-2h-2l-7-9 1-2 7 7v2l4 2 6 5 16 3-1-2-9-3-7-6-1-4 7 6 6 2-2-5-5-9 1-2 7 9 5 8 3 4 13 1 14-1-11-2 1-3 11 2-4-4-3-10 3 3 6 8 5 2h8l-6-18 4 2 3 7 2-10h1v18l18-4 3-2-8-5v-4l6-5 6-2h8l7 2 4-6 6-5 9-2 9 3 5-1 10-5 2 1v2l7-1 1 3 7 2 14 1 7 3 7-1 11-1v5l5 5 4 1h7l4-1-1-3-5-2v-3l12-2 7-3 9-8z" fill="#A9BE81"/>
<path transform="translate(619,1906)" d="m0 0h32l14 3 12 6 9 8 9 14 4 13v18l-5 15-7 10-8 8-12 7-10 3h-180l-13-4-10-6-10-10-7-12-3-10-1-14 3-14 8-15 9-9 10-6 8-3 5-1z" fill="#F6DBDA"/>
<path transform="translate(533,1010)" d="m0 0h2l3 4 9 2 5-1 5 2 6 5 7 2 4-1h4l3-3 7-3 5 1 3 3h6v2l6-2 5 1 9 1 2 1-2 9-9 31-4 10-7 1-1 5h-2l-2 4-8 8-9 12v1l28 1 2 3 11 1 28 1 11 1h18l4 1 4 2 2 6v8l-2 11v2l3-1-1 7 1 3v5l-120 1h-58l-80-1-1-3-3-17v-3h-2v-12l1-8h2l1-3 8-1 7 1h31l29 1h12l10-1v-4-11l3-15 5-13 6-11 9-8 12-7 5-6-1-2-12-4h-38l-12 3-22 8-29 9-4 1h-14l-16-2-16-6v-3l11 3h4l-11-6 1-3 5 1 10 5 12 3-1-4 4-1 7 3 10 1 8-3 5-4 2-3 7 2h15l1-5 5-2 1-7h3l2 3 8 1 1 3 6-3h6l3-5 4-2z" fill="#5B4F49"/>
<path transform="translate(600,864)" d="m0 0h10l8 4 6 7 2 4 4-1 7-3 9 1 8 4 5 1 4-3 4-1h7l8 3 5 4 3 6v7l8-4h13l8 4 3 5-1 1-7 1-1 1h-5l-5-3-10-1-2-1-5 3-10 8-7 2h-9v3l6 2v3l-4 2h-7l-5-2-5-5v-4l-10 1-7 1-7-3-14-1-7-3-1-2h-7v-2l-4 1-10 5-5-1-9-2-9 3-6 7-2 3-7-2h-8l-7 3-5 4 2 4 7 4-4 3-12 3h-6l-1-7v-5l-1 6-2-2-4-8v2l4 13v2l-2 1-9-1-6-5-4-6 2 5v3l4 2v2l-11-1-1 2 13 1-2 2-20 1-7-1-7-9-7-11 1 3 5 9-1 3-9-4-3-3 4 5 5 3 8 3v2h-8l-10-3-8-7-7-8 4 6v4l-4-2-2-2v-3l-4-2-4-1-4 1-13-2-8-5-4-5v-10l3-7 7-6 11-6 11-9 4-2 9-1 12 2 1-2 2 1h7l2 1h22l5 4 17-2 24-6 18-6 7 1 1 3-4 10 9 2 7-5 6-2 10 1 8 4 2-6 4-5 8-5z" fill="#A9BE81"/>
<path transform="translate(691,899)" d="m0 0 7 1 9 3 1 1h5l1-1 9-1 3 5v6l7 1 7 3 8-2 9 3 5 5 4 6v11l-6 8-7 4-12 2-8 11-10 5-12 2h-9l-19-3-16-9-13-8-8-5-10-4-9-1 2 4 8 5 9 4 1 1v15l1 3v8l-4 11-3-4-4-6-8-3-8-1-4-7-3-2-2-3h-3l-9-8-8-4-17-5-8-6-7-8v-2l-4-2h-8l-23 6v3l-18 5-21 3-14 1h-23l-10-4-8-7v-2h-2l-7-9 1-2 7 7v2l4 2 6 5 16 3-1-2-9-3-7-6-1-4 7 6 6 2-2-5-5-9 1-2 7 9 5 8 3 4 13 1 14-1-11-2 1-3 11 2-4-4-3-10 3 3 6 8 5 2h8l-6-18 4 2 3 7 2-10h1v18l18-4 3-2-8-5v-4l6-5 6-2h8l7 2 4-6 6-5 9-2 9 3 5-1 10-5 2 1v2l7-1 1 3 7 2 14 1 7 3 7-1 11-1v5l5 5 4 1h7l4-1-1-3-5-2v-3l12-2 7-3 9-8z" fill="#99B06B"/>
<path transform="translate(435,981)" d="m0 0 3 1 2 3 6-3 2 6 5-2 2 4 5 4 2 3 3 1 1-4 7-6 4-1h8l5 5 2 1h14l2 4 10-2 10 1 9 4 11 7 6 7 2 2h-7l-5 1-7-3-2-4h-2l-2 7-4 2-3 5h-6l-3 2h-3l-1-2-8-1-4-4-1 7-6 2-1 5-6 1h-9l-7-2-4 5-7 4-7 1-9-2-6-2h-3l1 4-8-1-11-4-4-3h-4l-1 2 6 2 8 5-4 1-13-4-4 4-5 6-8 3-13-3-4-3h-9l-13-4-7-4-6-7-1-9 3-6 14-1 7-5 2-5 3-2 1-4 11-4 1-3 6-3h11l10 2 9 2h2l1-4h5l1-4 6-1 1-3 4 2h3z" fill="#98B06A"/>
<path transform="translate(562,766)" d="m0 0h9l14 7 10 8h3v-2l5 1 4-3 1 2 4-1 2-1 2 4 7-1-1 5 7-1v6l5 1 1 5v7l6-3 9-1 13 4 6 5 4 6 2 5 12 3 6 4 7 8 6 12-1 10-2 3-5-1-4-6-2-4-6-2-3-2-6-12-5-4-4-2-8-1-6-9-8-5-9-1-4 1-6-4-5-2h-9l-5 2-7-4-3-1h-8l-8 4-7 6-12 3-3 3-5-2-6-3h-11l-3 1h-7l-7-3-13-1-7-3v-2l-9 3h-18l-8-2-1 2 1-8 6-8 8-4 10-1 2-4 9-8 13-5h7l9 2 5 3 9-3 11-5z" fill="#A8BE80"/>
<path transform="translate(426,1351)" d="m0 0h247l37 1v1l-12 2-22 7-10 3-5 3-12 4-20 6-31 5-19 1h-37l-9-1-20-2-33-7-9-3-12-5v-2h-2v-2l-4-2-6-2-23-4-6-1v-1z" fill="#FCEDEA"/>
<path transform="translate(422,1338)" d="m0 0h299l4 1 2 4-2 7-2 1-50 1h-236l-38-1-3-3-1-4 3-5z" fill="#F4B7B2"/>
<path transform="translate(89,379)" d="m0 0 21 1 9 3 5 5 3 8-1 9-4 6-5 5 4 1 5 5 2 3 1 9-2 8-6 7-10 4h-37l-3-2-1-4v-62l2-4 2-1z" fill="#0D0C0E"/>
<path transform="translate(558,917)" d="m0 0 4 1 3 2 5 1h7l6-2 4 6 6 5 23 6 5-1h16l7 1 3 3 9 4 11 2h8l-3 3-5 2 4 3h8l6-1 1 5-1 1h-5l1 2 15 5h17l8-7 5-2-2 5-1 3 9-4 6-5v3l-5 7-10 5-12 2h-9l-19-3-16-9-13-8-8-5-10-4-9-1 2 4 8 5 9 4 1 1v15l1 3v8l-4 11-3-4-4-6-8-3-8-1-4-7-3-2-2-3h-3l-9-8-8-4-17-5-8-6-7-8v-2l-4-2h-13l4-3 5-4z" fill="#5B4F49"/>
<path transform="translate(661,1012)" d="m0 0 3 3v15l-4 6-6 4-11 2-8-1-5-3-4 4-4 16-5 13-3 8-1 14 3 6 5 1h55l16 1 10 5 4 6v16l-3 31-1 22-4 32-3 42-1 10-1 5-1 8-1 35-3 13-1 4 2 1 32 1 4 3v4h-56l5-6 4-9 3-19 12-121 6-61v-13l-3-3-14-1h-72l-4-11v-12l3-12 5-13 7-25 3-9 8 6 7 4h11l7-6 4-8z" fill="#FBEAE7"/>
<path transform="translate(533,1010)" d="m0 0h2l3 4 9 2 5-1 5 2 6 5 7 2 4-1h4l3-3 9-3-2 6-3 16-7 11-9 10-10 8-7 8-6 14-3 11v4l-15 1-2-4 1-14 4-14 8-16 7-8 15-9 5-6-1-2-12-4h-38l-12 3-22 8-29 9-4 1h-14l-16-2-16-6v-3l11 3h4l-11-6 1-3 5 1 10 5 12 3-1-4 4-1 7 3 10 1 8-3 5-4 2-3 7 2h15l1-5 5-2 1-7h3l2 3 8 1 1 3 6-3h6l3-5 4-2z" fill="#433937"/>
<path transform="translate(544,1048)" d="m0 0h3l-2 4-6 7-8 17-3 12-1 14-1 4h-78l-21 1-4 3v13l12 106 9 80 3 17 4 8 4 5h-21l-34-1 4-4 16-2 15-1 1-1-1-13-2-14-3-37-2-18-4-40-3-26-4-38-1-17v-15l4-6h2v-2l9-3 17-1h27l27 1 11 1 6-2 2-9 2-12 6-13 5-10 5-5z" fill="#FBE9E6"/>
<path transform="translate(214,401)" d="m0 0h7l8 3 5 4 1-5 2-2h6l3 3 1 4v42l-2 9-4 6-6 5-7 2h-15l-13-4-3-4 2-5 4-1 10 3h13l5-3 2-5v-8l-5 4-6 2h-11l-8-4-6-7-2-5v-17l4-9 8-6z" fill="#0D0C0E"/>
<path transform="translate(619,1906)" d="m0 0h32l14 3 12 6 9 8 9 14 4 13v18l-5 15-7 10-8 8-12 7-10 3h-180l-13-4-10-6-10-10-7-12-3-10-1-14 3-14 8-15 9-9 10-6 8-3 5-1zm-141 5-10 3-11 6-10 10-7 14-2 10v12l4 12 5 9 9 10 10 6 7 3 6 1h175l13-4 11-7 8-9 7-14 2-10v-9l-2-10-6-12-9-10-9-6-10-4-4-1z" fill="#86A291"/>
<path transform="translate(597,522)" d="m0 0h6l3 4 1 13v47l-2 8-6 2-5-3-2-4-6 5-3 1h-13l-8-5-5-6-2-6v-18l4-8 7-6 5-2h12l8 4 1 1 1-22 2-4z" fill="#0E0D0F"/>
<path transform="translate(449,401)" d="m0 0h9l10 3 6 5 5 9 1 5v8l-2 7-5 8-5 4-8 3h-12l-9-3-6-5-5-10v-16l3-7 4-5 6-4z" fill="#0D0D0F"/>
<path transform="translate(112,544)" d="m0 0h16l8 4 7 8 3 9-1 13-4 8-8 7-6 2h-15l-9-4-7-8-2-6v-16l4-8 8-7z" fill="#0C0B0D"/>
<path transform="translate(513,544)" d="m0 0h16l8 4 7 8 3 9-1 13-3 7-7 7-8 3h-15l-9-4-7-8-2-6v-15l4-9 8-7z" fill="#0C0C0E"/>
<path transform="translate(632,544)" d="m0 0h18l8 4 4 6 2 7v25l-2 8-1 1h-7l-3-4v-2l-6 5-3 1h-12l-8-4-4-6-1-9 3-6 7-4 15-2h9l-2-9-11-1-12 3-4-1-2-2 1-5 7-4z" fill="#0E0D0F"/>
<path transform="translate(160,401)" d="m0 0h8l9 3 5 5 4 7 1 3v9l-7 2h-30l4 9 6 3h12l9-3 4 1 1 1v5l-6 5-8 2h-12l-10-3-7-6-4-7-1-5v-10l3-9 5-6 6-4z" fill="#0E0D0F"/>
<path transform="translate(335,544)" d="m0 0h14l8 4 3 4v2h2l3 8v8l-3 2h-34l5 10 4 2 8 1 10-2 7-1 2 2-1 6-7 4-4 1h-17l-10-5-7-8-2-7v-11l3-8 7-8 5-3z" fill="#0E0D0F"/>
<path transform="translate(291,401)" d="m0 0h6l3 5v2l9-6 3-1h9l7 3 4 4 3 7v34l-3 4h-6l-3-2-1-3-1-32-1-3-3-1h-8l-6 4-1 2-1 25-2 9-2 1h-6l-4-4v-43z" fill="#100E10"/>
<path transform="translate(494,401)" d="m0 0 7 1 2 3 1 32 2 4 2 1h8l5-3 2-4 1-30 4-4 7 1 2 3v44l-3 4h-7l-4-6-6 5-3 1h-11l-8-4-4-6-1-4v-34z" fill="#0E0D0F"/>
<path transform="translate(161,543)" d="m0 0 5 1 3 4 1 31 3 5h10l5-4 1-3 1-29 5-5 5 1 3 4v44l-2 3h-8l-3-4v-2l-5 4-4 2h-13l-6-3-4-5-2-6v-34l3-3z" fill="#0E0D0F"/>
<path transform="translate(263,543)" d="m0 0 4 1 3 3v4l8-6 3-1h14l4 2 5 7 2 8v28l-3 6-5 1-5-3-1-4v-25l-2-7-4-3-8 1-5 4-1 2-1 23-1 9-2 2h-7l-3-2v-47z" fill="#0D0C0F"/>
<path transform="translate(558,917)" d="m0 0 4 1 3 2 8 2 1 6 6 7 14 8 11 4 10 3 14 7 4 6 1 3v12l-1 1h-12l-4-7-3-2-2-3h-3l-9-8-8-4-17-5-8-6-7-8v-2l-4-2h-13l4-3 5-4z" fill="#433937"/>
<path transform="translate(376,401)" d="m0 0h5l5 7 11 27 5-10 9-21 4-3 5 1 2 2-1 8-24 54-3 5-7 1-3-3 1-7 4-10-1-6-11-25-5-12v-5z" fill="#0E0D0F"/>
<path transform="translate(376,543)" d="m0 0 4 1 4 6 11 27 2-2 12-28 3-3h6l2 2v6l-4 9-17 39-6 12-2 2h-6l-3-3 1-6 4-9v-6l-15-34-2-5 1-5z" fill="#0D0C0E"/>
<path transform="translate(677,543)" d="m0 0 5 1 4 7 10 24v3l3-3 11-26 2-4 2-1h6l2 2-1 8-11 25-5 10-5 13-5 10-2 2h-7l-2-3 1-7 4-9-1-7-14-32-2-5 1-5z" fill="#0C0B0E"/>
<path transform="translate(578,828)" d="m0 0h1v15l7 1 2 5 5 3v2l-12 2-6 3-6 8-5 10-6 3-6 4-9-3 1-5 2-7-7-1-21 7-21 5-17 2-5-5 1-1h11l-3-3 1-3 6 3h14l-3-4v-2l5 1 7 2 7-2-1-6 4-1v3l7-2v4l4-4 5 1 3-5 5 2 4 1 8-11 15-5 1-1 1-13z" fill="#5B4F49"/>
<path transform="translate(464,527)" d="m0 0h6l3 3 1 3v10h10l5 2 1 5-2 3-13 1v26l4 4h11l1 1v7l-3 3h-15l-7-4-3-3-2-6-1-28-9-2-1-5 2-3 9-1v-13z" fill="#0D0C0F"/>
<path transform="translate(695,1156)" d="m0 0h1l-1 18-12 120-3 26-3 10-5 7-2 1h-54v-1l50-1 5-8 2-11h2v-11l2-16 1-20 3-25 2-23 1-4 1-17 2-14 2-15v-15z" fill="#443937"/>
<path transform="translate(75,543)" d="m0 0 5 1 3 6v46l-2 10-5 6-7 3h-10l-2-2v-5l10-5 1-1 1-8 1-48z" fill="#0D0C0F"/>
<path transform="translate(222,543)" d="m0 0 5 1 2 3v4l8-6 6-2h5l2 3v6l-7 3-9 3-3 6-1 27-3 4h-8l-2-2v-46l3-3z" fill="#0E0D0F"/>
<path transform="translate(555,401)" d="m0 0h5l3 4 1 3 9-6 2-1h8l1 2v6l-4 3-11 3-3 3-1 4-1 27-4 4h-6l-3-3v-45z" fill="#0B0A0D"/>
<path transform="translate(506,920)" d="m0 0h1v18l18-4 7-1 11-1-3 2-15 4v3l-18 5-21 3-14 1h-23l-10-4-8-7v-2h-2l-7-9 1-2 7 7v2l4 2 6 5 16 3-1-2-9-3-7-6-1-4 7 6 6 2-2-5-5-9 1-2 7 9 5 8 3 4 13 1 14-1-11-2 1-3 11 2-4-4-3-10 3 3 6 8 5 2h8l-6-18 4 2 3 7z" fill="#5A4E48"/>
<path transform="translate(487,1037)" d="m0 0h5l-4 5-13 4-9 4-12 4-14 2h-10l-11-2-5-1h-11l-12 6h-9l-11-4-8-6 3-2h5l2 2 13 3 8-3 7-8 17 6 16 2h14l20-6z" fill="#FCE9E6"/>
<path transform="translate(427,1156)" d="m0 0 4 1v10l2 10 4 31 4 39 3 25 2 18 3 24 3 14 4 8 5 1v1h-7l-6-7-3-9-4-30-14-126z" fill="#443937"/>
<path transform="translate(165,183)" d="m0 0h13l6 3 3 4v8l-5 6h-2l4 8 5 6 3 2v4l-7-1-6-7-6-9-7-1v18l-3 1-2-1v-38z" fill="#181517"/>
<path transform="translate(607,1021)" d="m0 0 8 1v22l-3 8-4 9-7 6h-2v2l-16 12-11 9-7 8-2 7-3 1-1-3 2-8 4-8 5-7h2l2-4 4-4h2v-2l8-5h2v-2l9-6 4-5 4-11 1-10v-6l-2-1z" fill="#433A38"/>
<path transform="translate(356,182)" d="m0 0h2v10l-5 8-12 6h-2v13l-1 5-3-1-1-16-13-7-4-5-2-7 1-5h7l8 5 4 4 1 3 2 1 2-6 9-6z" fill="#423735"/>
<path transform="translate(767,932)" d="m0 0h1v12l-7 9-12 4-5 2-2 4-9 9-8 4-11 2h-25l-10-4-11-8-1-4-5-1-3-3 4-1 17 9 3 2 19 3h9l12-2 10-5 8-11 12-2 9-6 4-6z" fill="#FBE8E5"/>
<path transform="translate(577,553)" d="m0 0 10 1 5 6 2 8-1 9-4 6-6 3-8-1-4-2-3-6-1-10 3-9 5-4z" fill="#F5B7B5"/>
<path transform="translate(117,553)" d="m0 0 9 1 6 7 1 5v7l-3 8-5 4-8 1-6-3-4-6v-14l3-6 4-3z" fill="#F6B8B6"/>
<path transform="translate(518,553)" d="m0 0 8 1 6 5 2 7v7l-3 8-5 4-8 1-6-3-4-6v-14l3-6 4-3z" fill="#F6B7B6"/>
<path transform="translate(84,420)" d="m0 0h15l10 1 6 5 1 2v7l-4 6-4 2h-25v-22z" fill="#F8B6B5"/>
<path transform="translate(450,411)" d="m0 0h8l5 3 3 5 1 5v7l-3 8-5 4h-10l-5-3-3-6v-11l3-8 3-3z" fill="#F8B7B6"/>
<path transform="translate(216,411)" d="m0 0h9l6 4 3 6v9l-3 7-5 4h-11l-5-4-3-8 1-11 5-5z" fill="#F5B6B5"/>
<path transform="translate(116,183)" d="m0 0h12l8 4 2 4v7l-4 7-7 3-9 2-1 14-4 1-1-1v-37z" fill="#433936"/>
<path transform="translate(264,401)" d="m0 0h6l3 3 1 3v39l-2 6-2 1h-6l-3-3v-45z" fill="#0E0D0F"/>
<path transform="translate(559,851)" d="m0 0 7 1-2 5h-2v3h-2v2h-2l-2 5-4 2-1 4h-3v2h-2v-6l-7-1-21 7-21 5-17 2-5-5 1-1h11l-3-3 1-3 6 3h14l-3-4v-2l5 1 7 2 7-2-1-6 4-1v3l7-2v4l4-4 5 1 3-5 5 2 4 1z" fill="#594D48"/>
<path transform="translate(448,1105)" d="m0 0h51l28 1v4l-5 1-13 1h-15l-27-1h-28l-3-1-7 1-2 4-2 18h-2l-1-10v-13l5-4z" fill="#4C4C49"/>
<path transform="translate(219,183)" d="m0 0h6l2 2v37l-4 3-6-2-4-6-4-2-2-6 1-7-1-5 3-5 7-1h4l-5-3 1-4z" fill="#423735"/>
<path transform="translate(233,183)" d="m0 0 5 1 5 6 4 2 2 3-1 10 1 7-3 4-6 1-5-2v3l6 2-3 4h-7l-1-1v-38z" fill="#403634"/>
<path transform="translate(83,390)" d="m0 0h24l5 3 2 4v6l-4 6-2 1h-25z" fill="#F8B6B5"/>
<path transform="translate(407,1033)" d="m0 0 5 1 10 5 12 3-1-4 4-1 7 3 10 1 12-3 1-1h5v4l-4 1v2l-20 6h-14l-16-2-16-6v-3l11 3h4l-11-6z" fill="#5B4F49"/>
<path transform="translate(605,1073)" d="m0 0h3l-1 10v12l3 11h-30v-3l10-13 8-8 1-2h2l1-5z" fill="#433937"/>
<path transform="translate(63,104)" d="m0 0 4 1 4 11 4 15 7-25 4-2 4 10 4 16 3-8 5-16 4-1-1 8-7 24-1 1h-5l-3-9-4-15-3 9-4 14-1 1h-5l-7-23-2-7z" fill="#181617"/>
<path transform="translate(269,183)" d="m0 0 3 1 1 6v14l2 10 2 3 8 1 6-3 2-5 1-26 4-1 1 1v28l-4 8-6 4-8 1-8-3-5-6-1-4v-27z" fill="#1A1718"/>
<path transform="translate(294,112)" d="m0 0h9l5 4 2 6-1 10-6 6h-9l-5-5-2-5 1-9 3-5z" fill="#181617"/>
<path transform="translate(176,112)" d="m0 0h8l4 2 3 6v10l-3 5-4 3h-8l-6-5-1-2v-11l3-6z" fill="#131113"/>
<path transform="translate(71,183)" d="m0 0h9l6 4 1 5-6-1-2-1h-7l-2 1 1 5 12 7 5 5 1 8-3 5-3 3-3 1h-7l-8-4-2-2 1-4 4 1 3 2h9l2-1v-6l-9-6-8-6-1-2v-8l5-5z" fill="#131113"/>
<path transform="translate(539,867)" d="m0 0 7 1 1 3-4 10-5-1h-11l-10 4-4 3h-2l-1 3-4-2v-2l-10-4 1-3 24-6z" fill="#F6D8D6"/>
<path transform="translate(621,845)" d="m0 0 2 1-10 6-1 2 4 2 10 6 6 2h10l6-3 11-11v3l-11 12-4 3 9-2 4-2 4 1-2 2h9l-4 2-19 4h-10l-11-4-20-11 2-5z" fill="#594E48"/>
<path transform="translate(568,1035)" d="m0 0 7 1-1 5-7 8-10 9-8 7-4 5-3 5-3-4 6-17 1-4 15-9 4-3z" fill="#5B4F49"/>
<path transform="translate(499,1018)" d="m0 0 4 4 8 1 1 3 4-1v2h28v1l-29 1-12 3-22 8-10 3-3-1 4-1v-4l-10 3 1-3 5-5h4l4 1h15l1-5 5-2 1-7z" fill="#483D3A"/>
<path transform="translate(668,1339)" d="m0 0 3 1h-2v2l-9 2-11-2-56 1h-46l-25-1h-8l-7-1v-1z" fill="#A9BF81"/>
<path transform="translate(197,112)" d="m0 0 4 2 4-2h6l4 3 5-3h6l3 3 1 3v20l-5-1v-18l-1-3-6 1-2 4-1 16h-4l-1-20-5-1-2 1-1 3-1 17h-5z" fill="#191718"/>
<path transform="translate(116,112)" d="m0 0h7l5 3 3 7-1 4h-17l2 7 6 1 6-3h2l-1 4-4 3h-9l-5-5-2-6 1-9 4-5z" fill="#171516"/>
<path transform="translate(242,112)" d="m0 0h8l5 4 2 9-1 1h-17l3 7 6 1 7-3 1 2-4 4-2 1h-8l-6-5-2-9 3-9z" fill="#181516"/>
<path transform="translate(598,1784)" d="m0 0 3 1v25l-5-1-11-14-1 15-3 1-2-1v-17l1-8 4 1 7 8 5 7 1-16z" fill="#FAE6E4"/>
<path transform="translate(614,1791)" d="m0 0 6 1 4 4v11l-5 4h-7l-5-4-1-7 3-6z" fill="#FAE6E4"/>
<path transform="translate(630,1791)" d="m0 0 3 1 3 7v4h2l2-9 1-2 5 1 2 6v4h2l1-6 3-5h3l-1 7-4 10-5 1-3-9h-2l-1 6-2 3-5-1-4-10-1-7z" fill="#FAE7E5"/>
<path transform="translate(554,1786)" d="m0 0h3l1 5 5 1v3h-5l1 10 5 2v3l-6 1-4-3-1-3v-10l-11 1v13l-3 2-2-1v-18h13l2-1z" fill="#FAE6E4"/>
<path transform="translate(483,1784)" d="m0 0 9 1 3 3v2l-11-1-2 1 1 5 9 2 3 3v7l-3 3-3 1h-8l-5-3-1-3 2-1 3 1h9l1-3-10-3-4-4 1-7 3-3z" fill="#FAE7E4"/>
<path transform="translate(637,572)" d="m0 0h14l-1 9-6 5-7 1-6-3-1-2v-6l3-3z" fill="#F6B7B5"/>
<path transform="translate(520,1791)" d="m0 0 8 1 3 6v10l-1 2-11 1-4-4v-6l4-3h7v-2l-10 1 1-4z" fill="#EEDFDC"/>
<path transform="translate(160,410)" d="m0 0h9l6 5 1 7h-25l1-6 5-5z" fill="#F8B6B5"/>
<path transform="translate(269,183)" d="m0 0 3 1 1 6v14l2 10 2 3 7 2v1h-5v3h-5l-6-7-1-4v-27z" fill="#221E1E"/>
<path transform="translate(339,552)" d="m0 0 9 1 5 5 1 6h-25l1-5 4-5z" fill="#F9B6B5"/>
<path transform="translate(165,183)" d="m0 0h13l1 2-9 1-3 3v16l-1 19-3 1-2-1v-38z" fill="#161314"/>
<path transform="translate(177,115)" d="m0 0h6l4 5v9l-3 5-7 1-3-3-1-3v-8l3-5z" fill="#F8B7B6"/>
<path transform="translate(574,951)" d="m0 0h7l16 5 11 9v1h-7l-3-1-4 1-4-3v-2h-6l-1-1-7-1-1-6z" fill="#F9E5E1"/>
<path transform="translate(484,792)" d="m0 0 4 1 5 5 4-1 5-1 1 4-5 6-6 2h-11l-4-2v-4h9l-2-5-1-4z" fill="#FABEBD"/>
<path transform="translate(296,115)" d="m0 0 7 1 2 3v11l-5 5-6-1-2-4v-10z" fill="#F8B7B5"/>
<path transform="translate(440,1967)" d="m0 0 3 4 6 10v2l4 2 5 6 11 7 6 4v2h-7l-9-5-10-9-6-10-3-7z" fill="#FBEAE8"/>
<path transform="translate(627,941)" d="m0 0 9 1 12 5 6 4 4 4-8-1-2 4-5-4-10-4-7-6z" fill="#FAE2DE"/>
<path transform="translate(514,923)" d="m0 0 5 1 5 5 5 3-4 3-12 3h-6l-1-7 2-3 5-3z" fill="#F7D9D8"/>
<path transform="translate(152,112)" d="m0 0h7l5 4 1 4-4-1-4-3-5 1-2 5 1 9 1 2 5 1 5-4h3l-1 4-5 4h-7l-5-4-2-5v-8l3-6z" fill="#191617"/>
<path transform="translate(559,851)" d="m0 0 7 1-2 5h-2v3h-2v2h-2l-2 5-4 2-1 4h-3v2h-2v-6l-2-2 4-1-2-4h-5l2-4 5 2 4 1z" fill="#453C3A"/>
<path transform="translate(83,208)" d="m0 0h5l1 8-3 5-3 3-3 1h-7l-8-4-2-2 1-4 4 1 3 2h9l2-1v-8z" fill="#1B1718"/>
<path transform="translate(471,877)" d="m0 0 5 1 4 3-2 4-9 6-7-6-9-5v-1l15-1z" fill="#F8DEDD"/>
<path transform="translate(567,1954)" d="m0 0h5l-4 2h-2v2h-2l1 7 1-4 5-1 2 1v6h3l-1-11-2-1h4l1 5-1 15-3 3h-9l-2-3 8 1 3-2v-4l-5 2-5-3-2-4 1-8z" fill="#E7CECC"/>
<path transform="translate(119,188)" d="m0 0 10 1 3 3v6l-5 4h-9v-13z" fill="#FBB7B6"/>
<path transform="translate(74,522)" d="m0 0 7 1 2 3v6l-5 4-7-1-3-5 1-5z" fill="#100E10"/>
<path transform="translate(264,380)" d="m0 0h7l4 5-1 5-3 3h-8l-4-5 1-5z" fill="#0D0C0E"/>
<path transform="translate(555,1956)" d="m0 0 7 1 2 10 3 3 3 1 5-2v5l-4 3-6-1-3-2v-3l-5-2-2-1z" fill="#FCE9E6"/>
<path transform="translate(167,188)" d="m0 0 11 1 3 3 1 3-2 4-2 1h-11l-1-1v-10z" fill="#FBB7B6"/>
<path transform="translate(579,972)" d="m0 0 4 2v4l6 4v3l-2 1h-7l-6-3-5-7v-3l5 1 4 1z" fill="#FABFBE"/>
<path transform="translate(502,1786)" d="m0 0 4 1v4h5v4l-4 1v10l5 1v3l-6 1-4-3-1-12-3-2 1-3 2-1z" fill="#FAE6E4"/>
<path transform="translate(277,107)" d="m0 0h3v5l4 1v3h-4v18l5 1-1 3-7-1-1-1v-20l-3-1 1-3 2-1z" fill="#1E1A1B"/>
<path transform="translate(490,861)" d="m0 0h3l2 3 7 3 3 4v2l-2 1h-12l-6-3 1-4z" fill="#F7D9D6"/>
<path transform="translate(655,909)" d="m0 0 3 1 2 5 6 3v3l-4 2h-7l-5-2-4-4v-4l5 1 2 1 1-5z" fill="#FABDBC"/>
<path transform="translate(180,1247)" d="m0 0h2l8 17 12 22 10 17 9 13-1 2-8-11-11-17-7-12-13-26z" fill="#FBB7B6"/>
<path transform="translate(441,909)" d="m0 0 5 1 2 4h7l1 3-3 3-9 3-1-2-9-3v-4h7z" fill="#FABCBB"/>
<path transform="translate(687,938)" d="m0 0 1 3-2 3-1 8-6 2h-8l-5-3 1-2 17-8z" fill="#FAE3E0"/>
<path transform="translate(414,911)" d="m0 0 4 1 2 4 8 1-1 4-5 4-3-1h-6l-6-4v-3h7l-1-4z" fill="#FABEBD"/>
<path transform="translate(629,828)" d="m0 0 4 1v7l6 2v3l-2 1h-8l-5-3-5-7v-3l5 1 4 2z" fill="#FABCBB"/>
<path transform="translate(494,981)" d="m0 0 3 1 1 5 7 2 1 4-2 1h-12l-6-4-1-5 7 1z" fill="#FABFBE"/>
<path transform="translate(577,814)" d="m0 0 4 1 2 4 7 1v4l-3 2-10 1-8-6v-3l8 1-1-3z" fill="#FABDBC"/>
<path transform="translate(497,921)" d="m0 0 4 2 3 7 1 9 2 1-11 3-13-1-7-1 1-3 11 2-4-4-3-10 3 3 6 8 5 2h8z" fill="#483F3C"/>
<path transform="translate(558,917)" d="m0 0 4 1 3 2 5 1-3 4-7 1v2h-3v2l-9 2h-5l4-3 5-4z" fill="#5B4F49"/>
<path transform="translate(404,1343)" d="m0 0 9 1 9 4v1l25 1v1h-47l2-2 1-5z" fill="#A9BF81"/>
<path transform="translate(401,1009)" d="m0 0 4 1 2 3 8-1v4l-4 4-3 1h-10l-4-3v-2l7-1-1-5z" fill="#FABEBD"/>
<path transform="translate(136,103)" d="m0 0h4v35l-4-1z" fill="#1C1819"/>
<path transform="translate(545,1956)" d="m0 0h6l3 4v6l-5 4-6-2-1-8z" fill="#FBE9E7"/>
<path transform="translate(553,1030)" d="m0 0h7l6 3v3l-5 6-5 3-4-1 3-13z" fill="#FBE7E3"/>
<path transform="translate(131,186)" d="m0 0 5 1 2 4v7l-4 7-7 1v-2l-2-1h2v-2l4-3z" fill="#171415"/>
<path transform="translate(649,974)" d="m0 0h1l2 14-1 7 6 9-5-2-9-4 1-7 3-4z" fill="#FCE8E6"/>
<path transform="translate(175,207)" d="m0 0h6l7 10 4 3v4l-7-1-6-7-4-6z" fill="#1A1617"/>
<path transform="translate(330,1009)" d="m0 0 4 2 2 3-1 6-1 9 3 6 7 6v2l-7-2-3-3v-2h-2l-1-6z" fill="#FBE9E7"/>
<path transform="translate(550,848)" d="m0 0 8 1 2 2-8 11-4-1-3-3 2-4z" fill="#F8DDDB"/>
<path transform="translate(665,852)" d="m0 0h2l3 5v3l-20 8-7 1 5-5 4-1 7-3 5-6z" fill="#FBE8E5"/>
<path transform="translate(444,922)" d="m0 0 5 5 7 11 4 5-1 2-13-5-7-6-1-4 7 6 6 2-2-5-5-9z" fill="#4B413D"/>
<path transform="translate(619,867)" d="m0 0 5 1 11 4 1 3-5 1-2 4-4-1-5-8z" fill="#FBE6E3"/>
<path transform="translate(439,1986)" d="m0 0 5 3 7 8 7 6 1 3-3 1-8-5-5-7-3-5z" fill="#FBE9E6"/>
<path transform="translate(657,864)" d="m0 0 4 1-2 2h9l-4 2-19 4h-10l-3-2 13-2z" fill="#483F3C"/>
<path transform="translate(650,933)" d="m0 0 4 1 4 6 8 4v1l-10-1-12-6 4-4z" fill="#FADEDC"/>
<path transform="translate(600,1954)" d="m0 0h10l2 5v12h-2l-1-2-1-12h-7l-1 13-2 1v-16z" fill="#6F7F74"/>
<path transform="translate(68,191)" d="m0 0 2 4 8 5 6 4 3 4-6 2-8-5-1-6h-2l-2-3z" fill="#443937"/>
<path transform="translate(685,957)" d="m0 0h3l4 4 7 3h10l9-3-5 5h-17l-10-3-6-3v-2z" fill="#F8DFDC"/>
<path transform="translate(737,952)" d="m0 0h2l-1 4-9 7-6 1 1-4 2-5z" fill="#FBE2DF"/>
<path transform="translate(520,1947)" d="m0 0h2v22h13v2h-14l-2-1v-18z" fill="#6E7B70"/>
<path transform="translate(243,115)" d="m0 0 7 1 3 4v2l-3 1h-10l-1-4z" fill="#F6B6B4"/>
<path transform="translate(545,1954)" d="m0 0h6l5 5v7l-4 5-5 1-3-1-4-7 1-6zm0 2-3 4 1 8 6 2 5-4v-6l-3-4z" fill="#60635D"/>
<path transform="translate(538,1070)" d="m0 0 5 4-4 17-1 2h-2v-13z" fill="#474644"/>
<path transform="translate(117,115)" d="m0 0 7 1 2 3-1 4h-12l1-5z" fill="#FBB7B6"/>
<path transform="translate(402,1039)" d="m0 0 11 3 11 4 11 2v1h-12l-13-4-9-4z" fill="#483D3A"/>
<path transform="translate(547,781)" d="m0 0h7l6 5-1 3h-9l-4-4z" fill="#F9C0BF"/>
<path transform="translate(738,955)" d="m0 0v3l-5 7-10 5-6-1 4-3h2v-2l9-4z" fill="#473C39"/>
<path transform="translate(684,1982)" d="m0 0 3 1-2 5-7 8-9 4 2-4 3-3h2l3-6h2l2-4z" fill="#FBEAE7"/>
<path transform="translate(698,908)" d="m0 0 8 1 1 3-1 5h2v3l-5-1-5-5-1-5z" fill="#F9C4C3"/>
<path transform="translate(508,907)" d="m0 0 4 1 4 5v3h-9l-4-5 1-3z" fill="#FABFBE"/>
<path transform="translate(738,938)" d="m0 0 9 2-1 5-1 1h-10l-2-1 2-4h2z" fill="#FAC1C0"/>
<path transform="translate(600,933)" d="m0 0 7 1 8 2 4 6h-7l-8-4-4-3z" fill="#473F3D"/>
<path transform="translate(606,787)" d="m0 0h8l4 3v4l-7 1-6-4z" fill="#F9C5C4"/>
<path transform="translate(407,1033)" d="m0 0 5 1 10 5 10 3v1h-10l-6-2-10-5z" fill="#4A413E"/>
<path transform="translate(615,887)" d="m0 0 5 1 4 2v4l-3 1h-8l-2-2 1-4z" fill="#F9C1C0"/>
<path transform="translate(666,840)" d="m0 0 3 1v4h2v2l3 1-1 2h-6l-4-2-3-4v-3z" fill="#FAC0BF"/>
<path transform="translate(166,199)" d="m0 0 11 1 2 4 1 3h-5l-1 2-1-2-7-1z" fill="#453A37"/>
<path transform="translate(521,838)" d="m0 0 10 2v3h-2v2l-10 1-3-3 3-1z" fill="#F9C1C0"/>
<path transform="translate(566,1956)" d="m0 0h6l4 2v9h-3v-6h-7v5l-2-1v-7h2z" fill="#F5E4E1"/>
<path transform="translate(952,1243)" d="m0 0h1v5l-4 10-6 11-3 1 1-5 7-14z" fill="#FBB7B6"/>
<path transform="translate(356,1024)" d="m0 0 10 2-1 4-3 2h-8l-1-4z" fill="#FABFBE"/>
<path transform="translate(465,833)" d="m0 0h10l-1 5-7 4-5-1z" fill="#F9C1C0"/>
<path transform="translate(496,913)" d="m0 0h5v5l-2 4-8-1-1-4z" fill="#FBB7B6"/>
<path transform="translate(470,940)" d="m0 0 13 1 6 1-2 2-20 1 1-4z" fill="#F5D9D6"/>
<path transform="translate(500,933)" d="m0 0h2l1 6-2 1-9-1-5-5h12z" fill="#F7DAD7"/>
<path transform="translate(615,1795)" d="m0 0 4 2v8l-1 1h-5l-1-1v-8z" fill="#87A393"/>
<path transform="translate(700,1962)" d="m0 0 3 2-2 12-1 2h-2l-2 5h-1l1-8z" fill="#FCEBE8"/>
<path transform="translate(444,938)" d="m0 0 12 5v2h-8l-10-3v-2z" fill="#F3DCD6"/>
<path transform="translate(81,184)" d="m0 0 5 3 1 5-6-1-2-1h-9l3-3 2-1z" fill="#3A3130"/>
<path transform="translate(405,1034)" d="m0 0 1 2 6 2 8 5-4 1-13-4-1-4z" fill="#F3CFC9"/>
<path transform="translate(366,992)" d="m0 0 8 1v4l-4 2h-8l1-4z" fill="#F9C0BF"/>
<path transform="translate(422,926)" d="m0 0 7 6 1 3 4 2 6 5 4 2-2 2-4-1-7-6v-2h-2l-7-9z" fill="#4E433F"/>
<path transform="translate(628,930)" d="m0 0 6 1 10 4v1l-21-1v-2z" fill="#F4D7D5"/>
<path transform="translate(671,861)" d="m0 0 5 1 1 2-14 4-5-1 3-3z" fill="#F7E2DF"/>
<path transform="translate(573,1955)" d="m0 0h4l1 5-1 15-3 3h-9l-2-3 8 1 4-4v-16z" fill="#56544F"/>
<path transform="translate(346,1044)" d="m0 0 9 1 5 1v2h2v2l-7 1-5-3z" fill="#FBEAE8"/>
<path transform="translate(231,213)" d="m0 0 3 2v3l6 1v3l-2 2h-7z" fill="#151214"/>
<path transform="translate(330,1009)" d="m0 0 4 2 2 3-1 6-2 9h-1z" fill="#FBE8E5"/>
<path transform="translate(505,917)" d="m0 0 3 1v6l-2 2-1 6-2-2-4-11 2-1 2 2z" fill="#C1BB90"/>
<path transform="translate(335,204)" d="m0 0 4 1v14l-1 5h-2z" fill="#1A1718"/>
<path transform="translate(659,850)" d="m0 0v3l-11 12-3 2h-9v-1l9-3 8-7z" fill="#4E4440"/>
<path transform="translate(497,921)" d="m0 0 4 2 3 7 1 9 2 1h-6l2-1z" fill="#4C413E"/>
<path transform="translate(518,864)" d="m0 0 4 2-1 3-9 2-5-2v-2l8-1z" fill="#F7D9D6"/>
<path transform="translate(356,182)" d="m0 0h2v10l-5 8-5 1 2-4h3l2-4 1-8-2-1z" fill="#171415"/>
<path transform="translate(538,932)" d="m0 0h5l-3 2-11 3h-9l2-2 5-2z" fill="#4D423E"/>
<path transform="translate(496,866)" d="m0 0 6 1 3 5-3 1h-9l-3-2 10-1v-2l-4-1z" fill="#FCE9E7"/>
<path transform="translate(656,862)" d="m0 0 5 1-4 2-11 4-3-1 6-5z" fill="#F3D1CC"/>
<path transform="translate(562,919)" d="m0 0 8 2-3 4-7 1v2h-2l2-6z" fill="#494744"/>
<path transform="translate(958,1229)" d="m0 0 2 2-1 7-4 5h-2l3-10z" fill="#FBB7B6"/>
<path transform="translate(481,926)" d="m0 0 3 3 6 8 5 2v2h-6l-5-5z" fill="#504742"/>
<path transform="translate(245,205)" d="m0 0h3l1 7-2 3h-5l2-1-1-3z" fill="#110F11"/>
<path transform="translate(521,861)" d="m0 0h3v3l7-2-1 4-2 1h-6l-2-2z" fill="#443A37"/>
<path transform="translate(716,961)" d="m0 0 2 1-5 4h-17l-4-2 4-1 3 1h10z" fill="#F5D7D6"/>
<path transform="translate(444,922)" d="m0 0 5 5 6 10-3 2-6-12z" fill="#4F4440"/>
<path transform="translate(556,862)" d="m0 0h2l-2 5-4 2-1 4h-3v2h-2v-4h3v-2h2l2-5h2z" fill="#474442"/>
<path transform="translate(477,918)" d="m0 0 5 1 1 8h-3l-4-6z" fill="#FAB7B6"/>
<path transform="translate(497,879)" d="m0 0h8l1 4-1 2-9-3z" fill="#FBE7E4"/>
<path transform="translate(657,864)" d="m0 0 4 1-2 2h9l-4 2-11 1v-3z" fill="#564C46"/>
<path transform="translate(680 2e3)" d="m0 0h4l-2 5-5 3-2-1 2-5z" fill="#FCEBE8"/>
<path transform="translate(586,1954)" d="m0 0 3 1v16h-3l-1-16z" fill="#565752"/>
<path transform="translate(567,1106)" d="m0 0h10l4 2-4 2-10-1z" fill="#474644"/>
<path transform="translate(724,956)" d="m0 0h2l-2 5-8 5-2-1 8-8z" fill="#493E3B"/>
<path transform="translate(140,1121)" d="m0 0 4 2-1 8-4-1z" fill="#F7DCDB"/>
<path transform="translate(567,1954)" d="m0 0h5l-4 2h-2v2h-2l2 9 1 3-3-1-2-4 1-8z" fill="#56524C"/>
<path transform="translate(483,870)" d="m0 0 1 3 4 2-1 2-10-1 4-4h2z" fill="#F9D3D2"/>
<path transform="translate(598,1955)" d="m0 0 4 1-1 1-1 13-2 1z" fill="#5F675F"/>
<path transform="translate(483,935)" d="m0 0 5 3v2l-10-1-1-3z" fill="#F8D2D1"/>
<path transform="translate(279,220)" d="m0 0h5l1 2 4 2-8 1-4-2h2z" fill="#473C39"/>
<path transform="translate(170,185)" d="m0 0h9l-2 4-10-1z" fill="#443937"/>
<path transform="translate(603,859)" d="m0 0h5l3 3-1 1h-10z" fill="#FCE8E6"/>
<path transform="translate(545,1954)" d="m0 0h5l-4 2-3 4v8l-2-1-1-6 3-6z" fill="#57544F"/>
<path transform="translate(453,1339)" d="m0 0 14 1-4 2-6 1z" fill="#A9BF81"/>
<path transform="translate(705,1303)" d="m0 0 5 1-1 5-4 1-1-4z" fill="#FCEDEA"/>
<path transform="translate(685,1106)" d="m0 0h11l4 4v7h-1l-2-7-5-2-7-1z" fill="#443937"/>
<path transform="translate(635,873)" d="m0 0h10v3h-8l-6 1z" fill="#F7D9D8"/>
<path transform="translate(450,941)" d="m0 0 6 2v2h-8l-5-1v-1l7-1z" fill="#E4CBBA"/>
<path transform="translate(503,914)" d="m0 0 5 2v2l-4 2h-3z" fill="#98B06A"/>
<path transform="translate(113,215)" d="m0 0h2l1 9-3 1z" fill="#0B0A0D"/>
</svg>
